name rise44.9368peak50.754fall52.0217.mot
datacolumns 19
datarows 12
range 2.33000000000000 2.34833100000000
endheader
time	ground_force1_vx	ground_force1_vy	ground_force1_vz	ground_force1_px	ground_force1_py	ground_force1_pz	ground_force2_vx	ground_force2_vy	ground_force2_vz	ground_force2_px	ground_force2_py	ground_force2_pz	ground_torque1_x	ground_torque1_y	ground_torque1_z	ground_torque2_x	ground_torque2_y	ground_torque2_z	
2.33000000000000	4.46808800000000	698.61515699999995	48.73695700000000	0.27690900000000	0.00000000000000	0.11378000000000	0.00000000000000	0.00000000000000	0.00000000000000	0.00000000000000	0.00000000000000	0.00000000000000	0.00000000000000	25.54621400000000	0.00000000000000	0.00000000000000	0.00000000000000	0.00000000000000	
2.33165800000000	4.03159700000000	699.05463299999997	48.82981900000000	0.27569500000000	0.00000000000000	0.11380000000000	0.00000000000000	0.00000000000000	0.00000000000000	0.00000000000000	0.00000000000000	0.00000000000000	0.00000000000000	25.61219900000000	0.00000000000000	0.00000000000000	0.00000000000000	0.00000000000000	
2.33332500000000	3.59085000000000	699.50651900000003	48.92324900000000	0.27448600000000	0.00000000000000	0.11381900000000	0.00000000000000	0.00000000000000	0.00000000000000	0.00000000000000	0.00000000000000	0.00000000000000	0.00000000000000	25.68004000000000	0.00000000000000	0.00000000000000	0.00000000000000	0.00000000000000	
2.33499800000000	3.14589600000000	699.96992499999999	49.01672000000000	0.27328200000000	0.00000000000000	0.11383600000000	0.00000000000000	0.00000000000000	0.00000000000000	0.00000000000000	0.00000000000000	0.00000000000000	0.00000000000000	25.74944900000000	0.00000000000000	0.00000000000000	0.00000000000000	0.00000000000000	
2.33666300000000	2.69679400000000	700.44405400000005	49.10972200000000	0.27208400000000	0.00000000000000	0.11385100000000	0.00000000000000	0.00000000000000	0.00000000000000	0.00000000000000	0.00000000000000	0.00000000000000	0.00000000000000	25.82014900000000	0.00000000000000	0.00000000000000	0.00000000000000	0.00000000000000	
2.33833100000000	2.24361300000000	700.92820900000004	49.20176700000000	0.27089300000000	0.00000000000000	0.11386300000000	0.00000000000000	0.00000000000000	0.00000000000000	0.00000000000000	0.00000000000000	0.00000000000000	0.00000000000000	25.89186900000000	0.00000000000000	0.00000000000000	0.00000000000000	0.00000000000000	
2.33999900000000	1.78643100000000	701.42179399999998	49.29238600000000	0.26970800000000	0.00000000000000	0.11387400000000	0.00000000000000	0.00000000000000	0.00000000000000	0.00000000000000	0.00000000000000	0.00000000000000	0.00000000000000	25.96435100000000	0.00000000000000	0.00000000000000	0.00000000000000	0.00000000000000	
2.34166600000000	1.32533500000000	701.92431699999997	49.38113600000000	0.26853100000000	0.00000000000000	0.11388200000000	0.00000000000000	0.00000000000000	0.00000000000000	0.00000000000000	0.00000000000000	0.00000000000000	0.00000000000000	26.03734900000000	0.00000000000000	0.00000000000000	0.00000000000000	0.00000000000000	
2.34333000000000	0.86042200000000	702.43539199999998	49.46759900000000	0.26736300000000	0.00000000000000	0.11388700000000	0.00000000000000	0.00000000000000	0.00000000000000	0.00000000000000	0.00000000000000	0.00000000000000	0.00000000000000	26.11062800000000	0.00000000000000	0.00000000000000	0.00000000000000	0.00000000000000	
2.34499500000000	0.39179400000000	702.95474000000002	49.55138200000000	0.26620300000000	0.00000000000000	0.11389000000000	0.00000000000000	0.00000000000000	0.00000000000000	0.00000000000000	0.00000000000000	0.00000000000000	0.00000000000000	26.18396500000000	0.00000000000000	0.00000000000000	0.00000000000000	0.00000000000000	
2.34666000000000	-0.08043500000000	703.48219099999994	49.63212400000000	0.26505300000000	0.00000000000000	0.11389000000000	0.00000000000000	0.00000000000000	0.00000000000000	0.00000000000000	0.00000000000000	0.00000000000000	0.00000000000000	26.25715100000000	0.00000000000000	0.00000000000000	0.00000000000000	0.00000000000000	
2.34833100000000	-0.55614700000000	704.01768200000004	49.70949200000000	0.26391300000000	0.00000000000000	0.11388800000000	0.00000000000000	0.00000000000000	0.00000000000000	0.00000000000000	0.00000000000000	0.00000000000000	0.00000000000000	26.32999200000000	0.00000000000000	0.00000000000000	0.00000000000000	0.00000000000000	
